<svg xmlns="http://www.w3.org/2000/svg" viewBox="0 0 64 64" role="img" aria-label="Xbox style icon">
  <defs>
    <radialGradient id="bg" cx="50%" cy="35%" r="70%">
      <stop offset="0%" stop-color="#42d15f" />
      <stop offset="100%" stop-color="#0b6b23" />
    </radialGradient>
    <linearGradient id="shine" x1="0%" x2="100%" y1="0%" y2="100%">
      <stop offset="0%" stop-color="#f7fff8" stop-opacity="0.95" />
      <stop offset="100%" stop-color="#d8ffe0" stop-opacity="0.72" />
    </linearGradient>
  </defs>
  <circle cx="32" cy="32" r="30" fill="url(#bg)" />
  <path
    d="M15 17c4.8-3.8 10.7-5.9 17-5.9S44.2 13.2 49 17c-5.2 1.7-10.8 5.2-17 10.6C25.8 22.2 20.2 18.7 15 17Z"
    fill="url(#shine)" />
  <path
    d="M18.4 46.8c2.2-7.1 6.5-13.4 13.6-19.2 7.1 5.8 11.4 12.1 13.6 19.2-3.9 3.7-8.9 5.9-13.6 5.9s-9.7-2.2-13.6-5.9Z"
    fill="url(#shine)" />
  <path
    d="M18.5 18.5c5.1 1.2 9.9 4 13.5 7.9 3.6-3.9 8.4-6.7 13.5-7.9"
    fill="none"
    stroke="#e9ffed"
    stroke-linecap="round"
    stroke-width="3.4" />
  <path
    d="M20.2 44.9c2.1-5.8 5.9-11 11.8-16.1 5.9 5.1 9.7 10.3 11.8 16.1"
    fill="none"
    stroke="#e9ffed"
    stroke-linecap="round"
    stroke-width="3.6" />
</svg>
